# xmcd
#
# Track frame offsets: 
#        150
#        28667
#        54795
#        73372
#        101046
#        123841
#        136661
#        142585
#
# Disc length: 2627 seconds
#
# Revision: 1
# Processed by: cddbd v1.5.2PL0 Copyright (c) Steve Scherf et al.
# Submitted via: ExactAudioCopy v0.95b4
#
DISCID=650a4108
DTITLE=Various Artist - Mujhse Dosti Karoge
DYEAR=2002
DGENRE=Hindi
TTITLE0=Lata Mangeskhar, Udit Narayan - Andekhi Anjaani
TTITLE1=Lata Mangeskar, Sonu Nigam - Jaane Dil Mein
TTITLE2=Udit Narayan - Saanwali Si Ek Ladki
TTITLE3=Alisha Chinai, Sonu Nigam - Oh My Darling
TTITLE4=Asha Bhosle, Alka Yagnik, Udit Narayan - Mujhse Dosti Karoge
TTITLE5=Lata Mangeskar, Sonu Nigam - Jaane Dil Mein (Part 2)
TTITLE6=Instrumental - Terrific Tina
TTITLE7=Lata Mangeskar, Udit Narayan, Sonu Nigam, Pamela Chopra - The 
TTITLE7=Medley
EXTD=Mujhse Dosti Karoge, SAIANAND
EXTT0=
EXTT1=
EXTT2=
EXTT3=
EXTT4=
EXTT5=
EXTT6=
EXTT7=
PLAYORDER=
